<?xml version="1.0" encoding="utf-8"?>
<!-- Generator: Adobe Illustrator 24.2.3, SVG Export Plug-In . SVG Version: 6.00 Build 0)  -->
<svg version="1.1" id="Layer_1" xmlns="http://www.w3.org/2000/svg" xmlns:xlink="http://www.w3.org/1999/xlink" x="0px" y="0px"
	 viewBox="0 0 42.2 42.2" style="enable-background:new 0 0 42.2 42.2;" xml:space="preserve">
<style type="text/css">
	.st0{fill:none;stroke:#A7BB89;stroke-width:2;stroke-linecap:round;stroke-linejoin:round;}
	.st1{fill:none;stroke:#A7BB89;stroke-width:2;stroke-linecap:round;stroke-linejoin:round;stroke-dasharray:28,28;}
</style>
<g>
	<g>
		<path class="st0" d="M32.8,0.8c4.7,0,8.5,3.8,8.5,8.6c0,1.3-0.3,2.6-0.9,3.8c-1.1,2.2-6.7,6-7.6,10.2c-1.6-4-6.5-8-7.6-10.2
			C23.1,8.9,24.8,3.8,29,1.7C30.2,1.1,31.5,0.8,32.8,0.8z"/>
		<path class="st0" d="M32.8,5C35.1,5,37,6.9,37,9.2s-1.9,4.2-4.2,4.2s-4.2-1.9-4.2-4.2l0,0C28.6,6.9,30.5,5,32.8,5z"/>
		<path class="st0" d="M12.4,9.8C18.8,9.8,24,15,24,21.4c0,1.8-0.4,3.6-1.2,5.2c-1.5,3-9.1,8.2-10.4,13.9C10.3,35,3.5,29.6,2,26.6
			C-0.8,20.9,1.5,13.9,7.2,11C8.8,10.2,10.6,9.8,12.4,9.8z"/>
		<path class="st0" d="M12.4,15.5c3.2,0,5.8,2.6,5.8,5.8s-2.6,5.8-5.8,5.8s-5.8-2.6-5.8-5.8l0,0C6.7,18.1,9.2,15.5,12.4,15.5z"/>
		<path class="st1" d="M15.7,41.1c4,0.6,11.5,0.1,16.4-0.3c8.8-0.8,7.7-6.5,0.1-7c-1.4-0.1-5-0.2-5.9-0.7c-1.7-0.9-2.1-3.4,0.4-4.1
			c1.3-0.2,2.6-0.7,3.8-1.4c1.1-0.9,2-2.1,2.4-3.5"/>
	</g>
</g>
</svg>
